# xmcd
#
# Track frame offsets: 
#        150
#        16495
#        29056
#        40268
#        51174
#        66703
#        80660
#        92390
#        113537
#        126620
#        140037
#        156450
#
# Disc length: 2355 seconds
#
# Revision: 0
# Processed by: cddbd v1.5.1PL0 Copyright (c) Steve Scherf et al.
# Submitted via: ExactAudioCopy v0.95a5
#
DISCID=b209310c
DTITLE=Dave and The 145s - Soul Power
DYEAR=1900
DGENRE=Blues
TTITLE0=Soul Power
TTITLE1=Signed Sealed Delivered
TTITLE2=Sweet Soul Music
TTITLE3=Too Hard To Handle
TTITLE4=My Girl
TTITLE5=6345789
TTITLE6=The House That Jack Built
TTITLE7=I Wish
TTITLE8=Hold On I'm Coming
TTITLE9=In The Midnight Hour
TTITLE10=Play That Funky Music
TTITLE11=Mustang Sally (Live)
EXTD=
EXTT0=
EXTT1=
EXTT2=
EXTT3=
EXTT4=
EXTT5=
EXTT6=
EXTT7=
EXTT8=
EXTT9=
EXTT10=
EXTT11=
PLAYORDER=
